<svg xmlns="http://www.w3.org/2000/svg" viewBox="0 0 100 100" width="100" height="100">
  <defs>
    <style>
      .paw-color { fill: #005A7A; } /* Tu color primario */
    </style>
  </defs>
  <path class="paw-color" d="M50 85c-8 0-15-7-15-15 0-8 7-15 15-15s15 7 15 15c0 8-7 15-15 15zm-25-20c-6 0-11-5-11-11 0-6 5-11 11-11s11 5 11 11c0 6-5 11-11 11zm50 0c-6 0-11-5-11-11 0-6 5-11 11-11s11 5 11 11c0 6-5 11-11 11zm-38-24c-5 0-9-4-9-9 0-5 4-9 9-9s9 4 9 9c0 5-4 9-9 9zm26 0c-5 0-9-4-9-9 0-5 4-9 9-9s9 4 9 9c0 5-4 9-9 9z"/>
</svg>