<svg width="200" height="200" viewBox="0 0 200 200" xmlns="http://www.w3.org/2000/svg">
  <!-- Fondo circular -->
  <circle cx="100" cy="100" r="90" fill="#f5f5f5" />
  
  <!-- Huella de pata -->
  <g transform="translate(60, 45) scale(3.3)">
    <path d="M8.5,2C9.3,2,10,2.7,10,3.5C10,4.3,9.3,5,8.5,5C7.7,5,7,4.3,7,3.5C7,2.7,7.7,2,8.5,2 M14.5,2C15.3,2,16,2.7,16,3.5C16,4.3,15.3,5,14.5,5C13.7,5,13,4.3,13,3.5C13,2.7,13.7,2,14.5,2 M5.5,8C6.3,8,7,8.7,7,9.5C7,10.3,6.3,11,5.5,11C4.7,11,4,10.3,4,9.5C4,8.7,4.7,8,5.5,8 M17.5,8C18.3,8,19,8.7,19,9.5C19,10.3,18.3,11,17.5,11C16.7,11,16,10.3,16,9.5C16,8.7,16.7,8,17.5,8 M11.5,17C13.1,17,14.6,16.2,15.5,14.8C16.5,13.3,20,13,20,9.5C20,8.3,19.4,7.3,18.4,6.6C17.6,5.9,16.5,5.5,15.5,5.5C14.2,5.5,13.9,6.1,12,6.1C10.6,6.1,9.9,5.6,8.5,5.5C7.5,5.5,6.4,5.9,5.6,6.6C4.6,7.3,4,8.3,4,9.5C4,13,7.5,13.3,8.5,14.8C9.4,16.2,10.1,17,11.5,17Z" fill="#4CAF50" opacity="0.8" />
  </g>
  
  <!-- Símbolo de wifi con línea -->
  <g transform="translate(100, 145)">
    <!-- Círculo del medio -->
    <circle cx="0" cy="0" r="6" fill="#FF5252" />
    
    <!-- Arco inferior -->
    <path d="M-15,-15 A21.21,21.21 0 0,1 15,-15" stroke="#FF5252" stroke-width="4" fill="none" />
    
    <!-- Arco medio -->
    <path d="M-25,-25 A35.35,35.35 0 0,1 25,-25" stroke="#FF5252" stroke-width="4" fill="none" />
    
    <!-- Línea diagonal -->
    <line x1="-30" y1="30" x2="30" y2="-30" stroke="#FF5252" stroke-width="4" />
  </g>
</svg> 