<?xml version="1.0" encoding="UTF-8"?>
<svg xmlns="http://www.w3.org/2000/svg" width="300" height="300" viewBox="0 0 300 300">
  <g fill="#ffffff">
    <!-- Paw 1 -->
    <path d="M30,50 C35,45 42,48 45,55 C48,62 47,70 42,75 C37,80 30,77 27,70 C24,63 25,55 30,50 Z"/>
    <path d="M50,40 C55,35 62,38 65,45 C68,52 67,60 62,65 C57,70 50,67 47,60 C44,53 45,45 50,40 Z"/>
    <path d="M70,50 C75,45 82,48 85,55 C88,62 87,70 82,75 C77,80 70,77 67,70 C64,63 65,55 70,50 Z"/>
    <path d="M50,70 C60,65 70,70 75,85 C80,100 75,115 65,120 C55,125 45,120 40,105 C35,90 40,75 50,70 Z"/>
    
    <!-- Paw 2 -->
    <path d="M130,150 C135,145 142,148 145,155 C148,162 147,170 142,175 C137,180 130,177 127,170 C124,163 125,155 130,150 Z"/>
    <path d="M150,140 C155,135 162,138 165,145 C168,152 167,160 162,165 C157,170 150,167 147,160 C144,153 145,145 150,140 Z"/>
    <path d="M170,150 C175,145 182,148 185,155 C188,162 187,170 182,175 C177,180 170,177 167,170 C164,163 165,155 170,150 Z"/>
    <path d="M150,170 C160,165 170,170 175,185 C180,200 175,215 165,220 C155,225 145,220 140,205 C135,190 140,175 150,170 Z"/>
    
    <!-- Paw 3 -->
    <path d="M230,50 C235,45 242,48 245,55 C248,62 247,70 242,75 C237,80 230,77 227,70 C224,63 225,55 230,50 Z"/>
    <path d="M250,40 C255,35 262,38 265,45 C268,52 267,60 262,65 C257,70 250,67 247,60 C244,53 245,45 250,40 Z"/>
    <path d="M270,50 C275,45 282,48 285,55 C288,62 287,70 282,75 C277,80 270,77 267,70 C264,63 265,55 270,50 Z"/>
    <path d="M250,70 C260,65 270,70 275,85 C280,100 275,115 265,120 C255,125 245,120 240,105 C235,90 240,75 250,70 Z"/>
    
    <!-- Paw 4 -->
    <path d="M30,250 C35,245 42,248 45,255 C48,262 47,270 42,275 C37,280 30,277 27,270 C24,263 25,255 30,250 Z"/>
    <path d="M50,240 C55,235 62,238 65,245 C68,252 67,260 62,265 C57,270 50,267 47,260 C44,253 45,245 50,240 Z"/>
    <path d="M70,250 C75,245 82,248 85,255 C88,262 87,270 82,275 C77,280 70,277 67,270 C64,263 65,255 70,250 Z"/>
    <path d="M50,270 C60,265 70,270 75,285 C80,300 75,315 65,320 C55,325 45,320 40,305 C35,290 40,275 50,270 Z"/>
  </g>
</svg>
