<?xml version="1.0" encoding="UTF-8"?>
<svg width="120" height="120" viewBox="0 0 120 120" xmlns="http://www.w3.org/2000/svg">
  <!-- Definición de patrones para optimización -->
  <defs>
    <!-- Huella de perro -->
    <symbol id="paw-dog" viewBox="0 0 24 24">
      <path d="M8.5,2C9.3,2,10,2.7,10,3.5C10,4.3,9.3,5,8.5,5C7.7,5,7,4.3,7,3.5C7,2.7,7.7,2,8.5,2 M14.5,2C15.3,2,16,2.7,16,3.5C16,4.3,15.3,5,14.5,5C13.7,5,13,4.3,13,3.5C13,2.7,13.7,2,14.5,2 M5.5,8C6.3,8,7,8.7,7,9.5C7,10.3,6.3,11,5.5,11C4.7,11,4,10.3,4,9.5C4,8.7,4.7,8,5.5,8 M17.5,8C18.3,8,19,8.7,19,9.5C19,10.3,18.3,11,17.5,11C16.7,11,16,10.3,16,9.5C16,8.7,16.7,8,17.5,8 M11.5,17C13.1,17,14.6,16.2,15.5,14.8C16.5,13.3,20,13,20,9.5C20,8.3,19.4,7.3,18.4,6.6C17.6,5.9,16.5,5.5,15.5,5.5C14.2,5.5,13.9,6.1,12,6.1C10.6,6.1,9.9,5.6,8.5,5.5C7.5,5.5,6.4,5.9,5.6,6.6C4.6,7.3,4,8.3,4,9.5C4,13,7.5,13.3,8.5,14.8C9.4,16.2,10.1,17,11.5,17Z" fill="#4CAF50" opacity="0.5" />
    </symbol>
    
    <!-- Huella de gato -->
    <symbol id="paw-cat" viewBox="0 0 24 24">
      <path d="M12,8L10.67,8.09C9.81,7.07 7.4,4.5 5,4.5C5,4.5 3.03,7.46 4.96,11.41C4.4,12.24 4.07,13.17 4,14.13L2.07,11.1L2.5,14.33L2,15.5L4,17.5L5.8,16.95L7.07,15.33L7.95,14.67L7.5,17.5L8.5,16.5L9.39,15.33L10.92,14.67L10.5,17.5L11.5,16.5L12.33,15.33L13.92,14.67L13.7,16.5L14.5,16.05L15.33,15.33L16.92,14.67L16.7,16.5L17.5,16.05L18.92,14.67L19.92,16.5L20.5,15.5L20.83,13.79L20.9,11.93C21.19,11.82 21.5,11.7 21.91,11.5L19.83,8.5L19.33,11.17C17.29,12.19 16.67,12.75 16,13.83C15.94,13.95 15,13.17 15,13.17C15,13.17 14.33,13.97 13,14.89C12.47,15.23 11.7,15.59 11,15.83V8C11,7.45 11.45,7 12,7M12,4C12.55,4 13,4.45 13,5C13,5.55 12.55,6 12,6C11.45,6 11,5.55 11,5C11,4.45 11.45,4 12,4Z" fill="#FF9800" opacity="0.5" />
    </symbol>
  </defs>
  
  <!-- Patrón repetitivo de huellas -->
  <g>
    <!-- Primera fila -->
    <use href="#paw-dog" x="10" y="10" width="24" height="24" transform="rotate(15, 22, 22)" />
    <use href="#paw-cat" x="50" y="15" width="20" height="20" transform="rotate(-10, 60, 25)" />
    <use href="#paw-dog" x="85" y="5" width="22" height="22" transform="rotate(25, 96, 16)" />
    
    <!-- Segunda fila -->
    <use href="#paw-cat" x="5" y="45" width="18" height="18" transform="rotate(-15, 14, 54)" />
    <use href="#paw-dog" x="40" y="50" width="26" height="26" transform="rotate(5, 53, 63)" />
    <use href="#paw-cat" x="80" y="40" width="21" height="21" transform="rotate(-20, 90, 50)" />
    
    <!-- Tercera fila -->
    <use href="#paw-dog" x="15" y="85" width="23" height="23" transform="rotate(10, 26, 96)" />
    <use href="#paw-cat" x="55" y="75" width="19" height="19" transform="rotate(-5, 64, 84)" />
    <use href="#paw-dog" x="90" y="90" width="25" height="25" transform="rotate(15, 102, 102)" />
  </g>
</svg>
